<mxfile host="app.diagrams.net" agent="Mozilla/5.0 (X11; Linux x86_64) AppleWebKit/537.36 (KHTML, like Gecko) Chrome/134.0.0.0 Safari/537.36" version="26.2.6">
  <diagram name="Page-1" id="21xvYacU4bvUw4XF4Thm">
    <mxGraphModel dx="3348" dy="1992" grid="1" gridSize="10" guides="1" tooltips="1" connect="1" arrows="1" fold="1" page="1" pageScale="1" pageWidth="1920" pageHeight="1200" background="none" math="0" shadow="0">
      <root>
        <mxCell id="0" />
        <mxCell id="1" parent="0" />
        <mxCell id="9X1aHSOasVwBQh25mCxy-6" value="&lt;p style=&quot;margin:0px;margin-top:4px;text-align:center;text-decoration:underline;&quot;&gt;&lt;b&gt;Struct:Log&lt;/b&gt;&lt;/p&gt;&lt;hr size=&quot;1&quot; style=&quot;border-style:solid;&quot;&gt;&lt;p style=&quot;margin:0px;margin-left:8px;&quot;&gt;timestamp: i64&lt;/p&gt;&lt;p style=&quot;margin:0px;margin-left:8px;&quot;&gt;data: Vec&amp;lt;Datum&amp;gt;&lt;/p&gt;" style="verticalAlign=top;align=left;overflow=fill;html=1;whiteSpace=wrap;" vertex="1" parent="1">
          <mxGeometry x="740" y="555" width="160" height="90" as="geometry" />
        </mxCell>
        <mxCell id="9X1aHSOasVwBQh25mCxy-7" value="&lt;p style=&quot;margin:0px;margin-top:4px;text-align:center;text-decoration:underline;&quot;&gt;&lt;b&gt;Enum:Datum&lt;/b&gt;&lt;/p&gt;&lt;hr size=&quot;1&quot; style=&quot;border-style:solid;&quot;&gt;&lt;p style=&quot;margin:0px;margin-left:8px;&quot;&gt;Label(String)&lt;/p&gt;&lt;p style=&quot;margin:0px;margin-left:8px;&quot;&gt;Description(String)&lt;/p&gt;&lt;p style=&quot;margin:0px;margin-left:8px;&quot;&gt;Float32(f32)&lt;/p&gt;&lt;p style=&quot;margin:0px;margin-left:8px;&quot;&gt;Float64(f64)&lt;/p&gt;&lt;p style=&quot;margin:0px;margin-left:8px;&quot;&gt;Int32(i32)&lt;/p&gt;&lt;p style=&quot;margin:0px;margin-left:8px;&quot;&gt;Int64(i64)&lt;/p&gt;" style="verticalAlign=top;align=left;overflow=fill;html=1;whiteSpace=wrap;" vertex="1" parent="1">
          <mxGeometry x="990" y="538" width="160" height="125" as="geometry" />
        </mxCell>
        <mxCell id="9X1aHSOasVwBQh25mCxy-9" value="" style="edgeStyle=entityRelationEdgeStyle;fontSize=12;html=1;endArrow=ERoneToMany;startArrow=ERmandOne;rounded=0;exitX=1;exitY=0.5;exitDx=0;exitDy=0;entryX=0;entryY=0.5;entryDx=0;entryDy=0;" edge="1" parent="1" source="9X1aHSOasVwBQh25mCxy-6" target="9X1aHSOasVwBQh25mCxy-7">
          <mxGeometry width="100" height="100" relative="1" as="geometry">
            <mxPoint x="910" y="705" as="sourcePoint" />
            <mxPoint x="1010" y="605" as="targetPoint" />
          </mxGeometry>
        </mxCell>
      </root>
    </mxGraphModel>
  </diagram>
</mxfile>
